<svg id="visual" viewBox="0 0 1920 600" width="1920" height="600" xmlns="http://www.w3.org/2000/svg" xmlns:xlink="http://www.w3.org/1999/xlink" version="1.1"><path d="M0 59L32 64C64 69 128 79 192 86C256 93 320 97 384 95.2C448 93.3 512 85.7 576 72.8C640 60 704 42 768 44C832 46 896 68 960 77.8C1024 87.7 1088 85.3 1152 74C1216 62.7 1280 42.3 1344 40C1408 37.7 1472 53.3 1536 54.5C1600 55.7 1664 42.3 1728 37.7C1792 33 1856 37 1888 39L1920 41L1920 0L1888 0C1856 0 1792 0 1728 0C1664 0 1600 0 1536 0C1472 0 1408 0 1344 0C1280 0 1216 0 1152 0C1088 0 1024 0 960 0C896 0 832 0 768 0C704 0 640 0 576 0C512 0 448 0 384 0C320 0 256 0 192 0C128 0 64 0 32 0L0 0Z" fill="#fff500" stroke-linecap="round" stroke-linejoin="miter"></path></svg>