<svg id="visual" viewBox="0 0 2100 600" width="2100" height="600" xmlns="http://www.w3.org/2000/svg" xmlns:xlink="http://www.w3.org/1999/xlink" version="1.1"><path d="M0 482L35 487.2C70 492.3 140 502.7 210 512.3C280 522 350 531 420 542.5C490 554 560 568 630 564.7C700 561.3 770 540.7 840 530C910 519.3 980 518.7 1050 531.7C1120 544.7 1190 571.3 1260 574.2C1330 577 1400 556 1470 549.7C1540 543.3 1610 551.7 1680 544C1750 536.3 1820 512.7 1890 509.5C1960 506.3 2030 523.7 2065 532.3L2100 541L2100 601L2065 601C2030 601 1960 601 1890 601C1820 601 1750 601 1680 601C1610 601 1540 601 1470 601C1400 601 1330 601 1260 601C1190 601 1120 601 1050 601C980 601 910 601 840 601C770 601 700 601 630 601C560 601 490 601 420 601C350 601 280 601 210 601C140 601 70 601 35 601L0 601Z" fill="#fff500" stroke-linecap="round" stroke-linejoin="miter"></path></svg>