<svg id="visual" viewBox="0 0 2100 600" width="2100" height="600" xmlns="http://www.w3.org/2000/svg" xmlns:xlink="http://www.w3.org/1999/xlink" version="1.1"><path d="M0 84L35 84.3C70 84.7 140 85.3 210 80.3C280 75.3 350 64.7 420 56.8C490 49 560 44 630 42.7C700 41.3 770 43.7 840 51.3C910 59 980 72 1050 69.3C1120 66.7 1190 48.3 1260 53.3C1330 58.3 1400 86.7 1470 85.5C1540 84.3 1610 53.7 1680 41.7C1750 29.7 1820 36.3 1890 43.3C1960 50.3 2030 57.7 2065 61.3L2100 65L2100 0L2065 0C2030 0 1960 0 1890 0C1820 0 1750 0 1680 0C1610 0 1540 0 1470 0C1400 0 1330 0 1260 0C1190 0 1120 0 1050 0C980 0 910 0 840 0C770 0 700 0 630 0C560 0 490 0 420 0C350 0 280 0 210 0C140 0 70 0 35 0L0 0Z" fill="#fff500" stroke-linecap="round" stroke-linejoin="miter"></path></svg>